<svg version="1.1" xmlns="http://www.w3.org/2000/svg" viewBox="0 0 620.4083309173584 471.1" width="620.4083309173584" height="471.1">
  <!-- svg-source:excalidraw -->
  
  <defs>
    <style class="style-fonts">
      @font-face {
        font-family: "Virgil";
        src: url("https://excalidraw.com/Virgil.woff2");
      }
      @font-face {
        font-family: "Cascadia";
        src: url("https://excalidraw.com/Cascadia.woff2");
      }
    </style>
  </defs>
  <rect x="0" y="0" width="620.4083309173584" height="471.1" fill="#ffffff"></rect><g stroke-linecap="round" transform="translate(58.03333282470703 188.1) rotate(0 143 136.5)"><path d="M286 136.5 C286 140.26, 285.84 144.03, 285.51 147.77 C285.19 151.52, 284.7 155.26, 284.05 158.97 C283.4 162.67, 282.59 166.37, 281.62 170.01 C280.66 173.65, 279.53 177.27, 278.25 180.82 C276.97 184.38, 275.54 187.89, 273.96 191.33 C272.37 194.77, 270.64 198.16, 268.76 201.47 C266.89 204.77, 264.87 208.01, 262.71 211.16 C260.56 214.3, 258.26 217.37, 255.85 220.34 C253.43 223.31, 250.87 226.18, 248.21 228.95 C245.54 231.71, 242.75 234.38, 239.85 236.93 C236.96 239.47, 233.94 241.91, 230.83 244.22 C227.73 246.53, 224.51 248.72, 221.21 250.77 C217.92 252.83, 214.52 254.76, 211.06 256.55 C207.6 258.34, 204.05 259.99, 200.44 261.5 C196.84 263.01, 193.16 264.38, 189.43 265.6 C185.71 266.82, 181.92 267.9, 178.1 268.82 C174.29 269.75, 170.42 270.52, 166.54 271.14 C162.65 271.76, 158.73 272.22, 154.81 272.53 C150.89 272.84, 146.94 273, 143 273 C139.06 273, 135.11 272.84, 131.19 272.53 C127.27 272.22, 123.35 271.76, 119.46 271.14 C115.58 270.52, 111.71 269.75, 107.9 268.82 C104.08 267.9, 100.29 266.82, 96.57 265.6 C92.84 264.38, 89.16 263.01, 85.56 261.5 C81.95 259.99, 78.4 258.34, 74.94 256.55 C71.48 254.76, 68.08 252.83, 64.79 250.77 C61.49 248.72, 58.27 246.53, 55.17 244.22 C52.06 241.91, 49.04 239.47, 46.15 236.93 C43.25 234.38, 40.46 231.71, 37.79 228.95 C35.13 226.18, 32.57 223.31, 30.15 220.34 C27.74 217.37, 25.44 214.3, 23.29 211.16 C21.13 208.01, 19.11 204.77, 17.24 201.47 C15.36 198.16, 13.63 194.77, 12.04 191.33 C10.46 187.89, 9.03 184.38, 7.75 180.82 C6.47 177.27, 5.34 173.65, 4.38 170.01 C3.41 166.37, 2.6 162.67, 1.95 158.97 C1.3 155.26, 0.81 151.52, 0.49 147.77 C0.16 144.03, 0 140.26, 0 136.5 C0 132.74, 0.16 128.97, 0.49 125.23 C0.81 121.48, 1.3 117.74, 1.95 114.03 C2.6 110.33, 3.41 106.63, 4.38 102.99 C5.34 99.35, 6.47 95.73, 7.75 92.18 C9.03 88.62, 10.46 85.11, 12.04 81.67 C13.63 78.23, 15.36 74.84, 17.24 71.53 C19.11 68.23, 21.13 64.99, 23.29 61.84 C25.44 58.7, 27.74 55.63, 30.15 52.66 C32.57 49.69, 35.13 46.82, 37.79 44.05 C40.46 41.29, 43.25 38.62, 46.15 36.07 C49.04 33.53, 52.06 31.09, 55.17 28.78 C58.27 26.47, 61.49 24.28, 64.79 22.23 C68.08 20.17, 71.48 18.24, 74.94 16.45 C78.4 14.66, 81.95 13.01, 85.56 11.5 C89.16 9.99, 92.84 8.62, 96.57 7.4 C100.29 6.18, 104.08 5.1, 107.9 4.18 C111.71 3.25, 115.58 2.48, 119.46 1.86 C123.35 1.24, 127.27 0.78, 131.19 0.47 C135.11 0.16, 139.06 0, 143 0 C146.94 0, 150.89 0.16, 154.81 0.47 C158.73 0.78, 162.65 1.24, 166.54 1.86 C170.42 2.48, 174.29 3.25, 178.1 4.18 C181.92 5.1, 185.71 6.18, 189.43 7.4 C193.16 8.62, 196.84 9.99, 200.44 11.5 C204.05 13.01, 207.6 14.66, 211.06 16.45 C214.52 18.24, 217.92 20.17, 221.21 22.23 C224.51 24.28, 227.73 26.47, 230.83 28.78 C233.94 31.09, 236.96 33.53, 239.85 36.07 C242.75 38.62, 245.54 41.29, 248.21 44.05 C250.87 46.82, 253.43 49.69, 255.85 52.66 C258.26 55.63, 260.56 58.7, 262.71 61.84 C264.87 64.99, 266.89 68.23, 268.76 71.53 C270.64 74.84, 272.37 78.23, 273.96 81.67 C275.54 85.11, 276.97 88.62, 278.25 92.18 C279.53 95.73, 280.66 99.35, 281.62 102.99 C282.59 106.63, 283.4 110.33, 284.05 114.03 C284.7 117.74, 285.19 121.48, 285.51 125.23 C285.84 128.97, 286 132.74, 286 136.5" stroke="none" stroke-width="0" fill="#ffeecc"></path><path d="M286 136.5 C286 140.26, 285.84 144.03, 285.51 147.77 C285.19 151.52, 284.7 155.26, 284.05 158.97 C283.4 162.67, 282.59 166.37, 281.62 170.01 C280.66 173.65, 279.53 177.27, 278.25 180.82 C276.97 184.38, 275.54 187.89, 273.96 191.33 C272.37 194.77, 270.64 198.16, 268.76 201.47 C266.89 204.77, 264.87 208.01, 262.71 211.16 C260.56 214.3, 258.26 217.37, 255.85 220.34 C253.43 223.31, 250.87 226.18, 248.21 228.95 C245.54 231.71, 242.75 234.38, 239.85 236.93 C236.96 239.47, 233.94 241.91, 230.83 244.22 C227.73 246.53, 224.51 248.72, 221.21 250.77 C217.92 252.83, 214.52 254.76, 211.06 256.55 C207.6 258.34, 204.05 259.99, 200.44 261.5 C196.84 263.01, 193.16 264.38, 189.43 265.6 C185.71 266.82, 181.92 267.9, 178.1 268.82 C174.29 269.75, 170.42 270.52, 166.54 271.14 C162.65 271.76, 158.73 272.22, 154.81 272.53 C150.89 272.84, 146.94 273, 143 273 C139.06 273, 135.11 272.84, 131.19 272.53 C127.27 272.22, 123.35 271.76, 119.46 271.14 C115.58 270.52, 111.71 269.75, 107.9 268.82 C104.08 267.9, 100.29 266.82, 96.57 265.6 C92.84 264.38, 89.16 263.01, 85.56 261.5 C81.95 259.99, 78.4 258.34, 74.94 256.55 C71.48 254.76, 68.08 252.83, 64.79 250.77 C61.49 248.72, 58.27 246.53, 55.17 244.22 C52.06 241.91, 49.04 239.47, 46.15 236.93 C43.25 234.38, 40.46 231.71, 37.79 228.95 C35.13 226.18, 32.57 223.31, 30.15 220.34 C27.74 217.37, 25.44 214.3, 23.29 211.16 C21.13 208.01, 19.11 204.77, 17.24 201.47 C15.36 198.16, 13.63 194.77, 12.04 191.33 C10.46 187.89, 9.03 184.38, 7.75 180.82 C6.47 177.27, 5.34 173.65, 4.38 170.01 C3.41 166.37, 2.6 162.67, 1.95 158.97 C1.3 155.26, 0.81 151.52, 0.49 147.77 C0.16 144.03, 0 140.26, 0 136.5 C0 132.74, 0.16 128.97, 0.49 125.23 C0.81 121.48, 1.3 117.74, 1.95 114.03 C2.6 110.33, 3.41 106.63, 4.38 102.99 C5.34 99.35, 6.47 95.73, 7.75 92.18 C9.03 88.62, 10.46 85.11, 12.04 81.67 C13.63 78.23, 15.36 74.84, 17.24 71.53 C19.11 68.23, 21.13 64.99, 23.29 61.84 C25.44 58.7, 27.74 55.63, 30.15 52.66 C32.57 49.69, 35.13 46.82, 37.79 44.05 C40.46 41.29, 43.25 38.62, 46.15 36.07 C49.04 33.53, 52.06 31.09, 55.17 28.78 C58.27 26.47, 61.49 24.28, 64.79 22.23 C68.08 20.17, 71.48 18.24, 74.94 16.45 C78.4 14.66, 81.95 13.01, 85.56 11.5 C89.16 9.99, 92.84 8.62, 96.57 7.4 C100.29 6.18, 104.08 5.1, 107.9 4.18 C111.71 3.25, 115.58 2.48, 119.46 1.86 C123.35 1.24, 127.27 0.78, 131.19 0.47 C135.11 0.16, 139.06 0, 143 0 C146.94 0, 150.89 0.16, 154.81 0.47 C158.73 0.78, 162.65 1.24, 166.54 1.86 C170.42 2.48, 174.29 3.25, 178.1 4.18 C181.92 5.1, 185.71 6.18, 189.43 7.4 C193.16 8.62, 196.84 9.99, 200.44 11.5 C204.05 13.01, 207.6 14.66, 211.06 16.45 C214.52 18.24, 217.92 20.17, 221.21 22.23 C224.51 24.28, 227.73 26.47, 230.83 28.78 C233.94 31.09, 236.96 33.53, 239.85 36.07 C242.75 38.62, 245.54 41.29, 248.21 44.05 C250.87 46.82, 253.43 49.69, 255.85 52.66 C258.26 55.63, 260.56 58.7, 262.71 61.84 C264.87 64.99, 266.89 68.23, 268.76 71.53 C270.64 74.84, 272.37 78.23, 273.96 81.67 C275.54 85.11, 276.97 88.62, 278.25 92.18 C279.53 95.73, 280.66 99.35, 281.62 102.99 C282.59 106.63, 283.4 110.33, 284.05 114.03 C284.7 117.74, 285.19 121.48, 285.51 125.23 C285.84 128.97, 286 132.74, 286 136.5" stroke="#000000" stroke-width="1" fill="none"></path></g><g stroke-linecap="round" transform="translate(236.03333282470703 179.1) rotate(0 143 136.5)"><path d="M286 136.5 C286 140.26, 285.84 144.03, 285.51 147.77 C285.19 151.52, 284.7 155.26, 284.05 158.97 C283.4 162.67, 282.59 166.37, 281.62 170.01 C280.66 173.65, 279.53 177.27, 278.25 180.82 C276.97 184.38, 275.54 187.89, 273.96 191.33 C272.37 194.77, 270.64 198.16, 268.76 201.47 C266.89 204.77, 264.87 208.01, 262.71 211.16 C260.56 214.3, 258.26 217.37, 255.85 220.34 C253.43 223.31, 250.87 226.18, 248.21 228.95 C245.54 231.71, 242.75 234.38, 239.85 236.93 C236.96 239.47, 233.94 241.91, 230.83 244.22 C227.73 246.53, 224.51 248.72, 221.21 250.77 C217.92 252.83, 214.52 254.76, 211.06 256.55 C207.6 258.34, 204.05 259.99, 200.44 261.5 C196.84 263.01, 193.16 264.38, 189.43 265.6 C185.71 266.82, 181.92 267.9, 178.1 268.82 C174.29 269.75, 170.42 270.52, 166.54 271.14 C162.65 271.76, 158.73 272.22, 154.81 272.53 C150.89 272.84, 146.94 273, 143 273 C139.06 273, 135.11 272.84, 131.19 272.53 C127.27 272.22, 123.35 271.76, 119.46 271.14 C115.58 270.52, 111.71 269.75, 107.9 268.82 C104.08 267.9, 100.29 266.82, 96.57 265.6 C92.84 264.38, 89.16 263.01, 85.56 261.5 C81.95 259.99, 78.4 258.34, 74.94 256.55 C71.48 254.76, 68.08 252.83, 64.79 250.77 C61.49 248.72, 58.27 246.53, 55.17 244.22 C52.06 241.91, 49.04 239.47, 46.15 236.93 C43.25 234.38, 40.46 231.71, 37.79 228.95 C35.13 226.18, 32.57 223.31, 30.15 220.34 C27.74 217.37, 25.44 214.3, 23.29 211.16 C21.13 208.01, 19.11 204.77, 17.24 201.47 C15.36 198.16, 13.63 194.77, 12.04 191.33 C10.46 187.89, 9.03 184.38, 7.75 180.82 C6.47 177.27, 5.34 173.65, 4.38 170.01 C3.41 166.37, 2.6 162.67, 1.95 158.97 C1.3 155.26, 0.81 151.52, 0.49 147.77 C0.16 144.03, 0 140.26, 0 136.5 C0 132.74, 0.16 128.97, 0.49 125.23 C0.81 121.48, 1.3 117.74, 1.95 114.03 C2.6 110.33, 3.41 106.63, 4.38 102.99 C5.34 99.35, 6.47 95.73, 7.75 92.18 C9.03 88.62, 10.46 85.11, 12.04 81.67 C13.63 78.23, 15.36 74.84, 17.24 71.53 C19.11 68.23, 21.13 64.99, 23.29 61.84 C25.44 58.7, 27.74 55.63, 30.15 52.66 C32.57 49.69, 35.13 46.82, 37.79 44.05 C40.46 41.29, 43.25 38.62, 46.15 36.07 C49.04 33.53, 52.06 31.09, 55.17 28.78 C58.27 26.47, 61.49 24.28, 64.79 22.23 C68.08 20.17, 71.48 18.24, 74.94 16.45 C78.4 14.66, 81.95 13.01, 85.56 11.5 C89.16 9.99, 92.84 8.62, 96.57 7.4 C100.29 6.18, 104.08 5.1, 107.9 4.18 C111.71 3.25, 115.58 2.48, 119.46 1.86 C123.35 1.24, 127.27 0.78, 131.19 0.47 C135.11 0.16, 139.06 0, 143 0 C146.94 0, 150.89 0.16, 154.81 0.47 C158.73 0.78, 162.65 1.24, 166.54 1.86 C170.42 2.48, 174.29 3.25, 178.1 4.18 C181.92 5.1, 185.71 6.18, 189.43 7.4 C193.16 8.62, 196.84 9.99, 200.44 11.5 C204.05 13.01, 207.6 14.66, 211.06 16.45 C214.52 18.24, 217.92 20.17, 221.21 22.23 C224.51 24.28, 227.73 26.47, 230.83 28.78 C233.94 31.09, 236.96 33.53, 239.85 36.07 C242.75 38.62, 245.54 41.29, 248.21 44.05 C250.87 46.82, 253.43 49.69, 255.85 52.66 C258.26 55.63, 260.56 58.7, 262.71 61.84 C264.87 64.99, 266.89 68.23, 268.76 71.53 C270.64 74.84, 272.37 78.23, 273.96 81.67 C275.54 85.11, 276.97 88.62, 278.25 92.18 C279.53 95.73, 280.66 99.35, 281.62 102.99 C282.59 106.63, 283.4 110.33, 284.05 114.03 C284.7 117.74, 285.19 121.48, 285.51 125.23 C285.84 128.97, 286 132.74, 286 136.5" stroke="none" stroke-width="0" fill="#eeeeff88"></path><path d="M286 136.5 C286 140.26, 285.84 144.03, 285.51 147.77 C285.19 151.52, 284.7 155.26, 284.05 158.97 C283.4 162.67, 282.59 166.37, 281.62 170.01 C280.66 173.65, 279.53 177.27, 278.25 180.82 C276.97 184.38, 275.54 187.89, 273.96 191.33 C272.37 194.77, 270.64 198.16, 268.76 201.47 C266.89 204.77, 264.87 208.01, 262.71 211.16 C260.56 214.3, 258.26 217.37, 255.85 220.34 C253.43 223.31, 250.87 226.18, 248.21 228.95 C245.54 231.71, 242.75 234.38, 239.85 236.93 C236.96 239.47, 233.94 241.91, 230.83 244.22 C227.73 246.53, 224.51 248.72, 221.21 250.77 C217.92 252.83, 214.52 254.76, 211.06 256.55 C207.6 258.34, 204.05 259.99, 200.44 261.5 C196.84 263.01, 193.16 264.38, 189.43 265.6 C185.71 266.82, 181.92 267.9, 178.1 268.82 C174.29 269.75, 170.42 270.52, 166.54 271.14 C162.65 271.76, 158.73 272.22, 154.81 272.53 C150.89 272.84, 146.94 273, 143 273 C139.06 273, 135.11 272.84, 131.19 272.53 C127.27 272.22, 123.35 271.76, 119.46 271.14 C115.58 270.52, 111.71 269.75, 107.9 268.82 C104.08 267.9, 100.29 266.82, 96.57 265.6 C92.84 264.38, 89.16 263.01, 85.56 261.5 C81.95 259.99, 78.4 258.34, 74.94 256.55 C71.48 254.76, 68.08 252.83, 64.79 250.77 C61.49 248.72, 58.27 246.53, 55.17 244.22 C52.06 241.91, 49.04 239.47, 46.15 236.93 C43.25 234.38, 40.46 231.71, 37.79 228.95 C35.13 226.18, 32.57 223.31, 30.15 220.34 C27.74 217.37, 25.44 214.3, 23.29 211.16 C21.13 208.01, 19.11 204.77, 17.24 201.47 C15.36 198.16, 13.63 194.77, 12.04 191.33 C10.46 187.89, 9.03 184.38, 7.75 180.82 C6.47 177.27, 5.34 173.65, 4.38 170.01 C3.41 166.37, 2.6 162.67, 1.95 158.97 C1.3 155.26, 0.81 151.52, 0.49 147.77 C0.16 144.03, 0 140.26, 0 136.5 C0 132.74, 0.16 128.97, 0.49 125.23 C0.81 121.48, 1.3 117.74, 1.95 114.03 C2.6 110.33, 3.41 106.63, 4.38 102.99 C5.34 99.35, 6.47 95.73, 7.75 92.18 C9.03 88.62, 10.46 85.11, 12.04 81.67 C13.63 78.23, 15.36 74.84, 17.24 71.53 C19.11 68.23, 21.13 64.99, 23.29 61.84 C25.44 58.7, 27.74 55.63, 30.15 52.66 C32.57 49.69, 35.13 46.82, 37.79 44.05 C40.46 41.29, 43.25 38.62, 46.15 36.07 C49.04 33.53, 52.06 31.09, 55.17 28.78 C58.27 26.47, 61.49 24.28, 64.79 22.23 C68.08 20.17, 71.48 18.24, 74.94 16.45 C78.4 14.66, 81.95 13.01, 85.56 11.5 C89.16 9.99, 92.84 8.62, 96.57 7.4 C100.29 6.18, 104.08 5.1, 107.9 4.18 C111.71 3.25, 115.58 2.48, 119.46 1.86 C123.35 1.24, 127.27 0.78, 131.19 0.47 C135.11 0.16, 139.06 0, 143 0 C146.94 0, 150.89 0.16, 154.81 0.47 C158.73 0.78, 162.65 1.24, 166.54 1.86 C170.42 2.48, 174.29 3.25, 178.1 4.18 C181.92 5.1, 185.71 6.18, 189.43 7.4 C193.16 8.62, 196.84 9.99, 200.44 11.5 C204.05 13.01, 207.6 14.66, 211.06 16.45 C214.52 18.24, 217.92 20.17, 221.21 22.23 C224.51 24.28, 227.73 26.47, 230.83 28.78 C233.94 31.09, 236.96 33.53, 239.85 36.07 C242.75 38.62, 245.54 41.29, 248.21 44.05 C250.87 46.82, 253.43 49.69, 255.85 52.66 C258.26 55.63, 260.56 58.7, 262.71 61.84 C264.87 64.99, 266.89 68.23, 268.76 71.53 C270.64 74.84, 272.37 78.23, 273.96 81.67 C275.54 85.11, 276.97 88.62, 278.25 92.18 C279.53 95.73, 280.66 99.35, 281.62 102.99 C282.59 106.63, 283.4 110.33, 284.05 114.03 C284.7 117.74, 285.19 121.48, 285.51 125.23 C285.84 128.97, 286 132.74, 286 136.5" stroke="#000000" stroke-width="1" fill="none"></path></g><g stroke-linecap="round" transform="translate(145.03333282470703 54.599999999999994) rotate(0 143 136.5)"><path d="M286 136.5 C286 140.26, 285.84 144.03, 285.51 147.77 C285.19 151.52, 284.7 155.26, 284.05 158.97 C283.4 162.67, 282.59 166.37, 281.62 170.01 C280.66 173.65, 279.53 177.27, 278.25 180.82 C276.97 184.38, 275.54 187.89, 273.96 191.33 C272.37 194.77, 270.64 198.16, 268.76 201.47 C266.89 204.77, 264.87 208.01, 262.71 211.16 C260.56 214.3, 258.26 217.37, 255.85 220.34 C253.43 223.31, 250.87 226.18, 248.21 228.95 C245.54 231.71, 242.75 234.38, 239.85 236.93 C236.96 239.47, 233.94 241.91, 230.83 244.22 C227.73 246.53, 224.51 248.72, 221.21 250.77 C217.92 252.83, 214.52 254.76, 211.06 256.55 C207.6 258.34, 204.05 259.99, 200.44 261.5 C196.84 263.01, 193.16 264.38, 189.43 265.6 C185.71 266.82, 181.92 267.9, 178.1 268.82 C174.29 269.75, 170.42 270.52, 166.54 271.14 C162.65 271.76, 158.73 272.22, 154.81 272.53 C150.89 272.84, 146.94 273, 143 273 C139.06 273, 135.11 272.84, 131.19 272.53 C127.27 272.22, 123.35 271.76, 119.46 271.14 C115.58 270.52, 111.71 269.75, 107.9 268.82 C104.08 267.9, 100.29 266.82, 96.57 265.6 C92.84 264.38, 89.16 263.01, 85.56 261.5 C81.95 259.99, 78.4 258.34, 74.94 256.55 C71.48 254.76, 68.08 252.83, 64.79 250.77 C61.49 248.72, 58.27 246.53, 55.17 244.22 C52.06 241.91, 49.04 239.47, 46.15 236.93 C43.25 234.38, 40.46 231.71, 37.79 228.95 C35.13 226.18, 32.57 223.31, 30.15 220.34 C27.74 217.37, 25.44 214.3, 23.29 211.16 C21.13 208.01, 19.11 204.77, 17.24 201.47 C15.36 198.16, 13.63 194.77, 12.04 191.33 C10.46 187.89, 9.03 184.38, 7.75 180.82 C6.47 177.27, 5.34 173.65, 4.38 170.01 C3.41 166.37, 2.6 162.67, 1.95 158.97 C1.3 155.26, 0.81 151.52, 0.49 147.77 C0.16 144.03, 0 140.26, 0 136.5 C0 132.74, 0.16 128.97, 0.49 125.23 C0.81 121.48, 1.3 117.74, 1.95 114.03 C2.6 110.33, 3.41 106.63, 4.38 102.99 C5.34 99.35, 6.47 95.73, 7.75 92.18 C9.03 88.62, 10.46 85.11, 12.04 81.67 C13.63 78.23, 15.36 74.84, 17.24 71.53 C19.11 68.23, 21.13 64.99, 23.29 61.84 C25.44 58.7, 27.74 55.63, 30.15 52.66 C32.57 49.69, 35.13 46.82, 37.79 44.05 C40.46 41.29, 43.25 38.62, 46.15 36.07 C49.04 33.53, 52.06 31.09, 55.17 28.78 C58.27 26.47, 61.49 24.28, 64.79 22.23 C68.08 20.17, 71.48 18.24, 74.94 16.45 C78.4 14.66, 81.95 13.01, 85.56 11.5 C89.16 9.99, 92.84 8.62, 96.57 7.4 C100.29 6.18, 104.08 5.1, 107.9 4.18 C111.71 3.25, 115.58 2.48, 119.46 1.86 C123.35 1.24, 127.27 0.78, 131.19 0.47 C135.11 0.16, 139.06 0, 143 0 C146.94 0, 150.89 0.16, 154.81 0.47 C158.73 0.78, 162.65 1.24, 166.54 1.86 C170.42 2.48, 174.29 3.25, 178.1 4.18 C181.92 5.1, 185.71 6.18, 189.43 7.4 C193.16 8.62, 196.84 9.99, 200.44 11.5 C204.05 13.01, 207.6 14.66, 211.06 16.45 C214.52 18.24, 217.92 20.17, 221.21 22.23 C224.51 24.28, 227.73 26.47, 230.83 28.78 C233.94 31.09, 236.96 33.53, 239.85 36.07 C242.75 38.62, 245.54 41.29, 248.21 44.05 C250.87 46.82, 253.43 49.69, 255.85 52.66 C258.26 55.63, 260.56 58.7, 262.71 61.84 C264.87 64.99, 266.89 68.23, 268.76 71.53 C270.64 74.84, 272.37 78.23, 273.96 81.67 C275.54 85.11, 276.97 88.62, 278.25 92.18 C279.53 95.73, 280.66 99.35, 281.62 102.99 C282.59 106.63, 283.4 110.33, 284.05 114.03 C284.7 117.74, 285.19 121.48, 285.51 125.23 C285.84 128.97, 286 132.74, 286 136.5" stroke="none" stroke-width="0" fill="#eeffee66"></path><path d="M286 136.5 C286 140.26, 285.84 144.03, 285.51 147.77 C285.19 151.52, 284.7 155.26, 284.05 158.97 C283.4 162.67, 282.59 166.37, 281.62 170.01 C280.66 173.65, 279.53 177.27, 278.25 180.82 C276.97 184.38, 275.54 187.89, 273.96 191.33 C272.37 194.77, 270.64 198.16, 268.76 201.47 C266.89 204.77, 264.87 208.01, 262.71 211.16 C260.56 214.3, 258.26 217.37, 255.85 220.34 C253.43 223.31, 250.87 226.18, 248.21 228.95 C245.54 231.71, 242.75 234.38, 239.85 236.93 C236.96 239.47, 233.94 241.91, 230.83 244.22 C227.73 246.53, 224.51 248.72, 221.21 250.77 C217.92 252.83, 214.52 254.76, 211.06 256.55 C207.6 258.34, 204.05 259.99, 200.44 261.5 C196.84 263.01, 193.16 264.38, 189.43 265.6 C185.71 266.82, 181.92 267.9, 178.1 268.82 C174.29 269.75, 170.42 270.52, 166.54 271.14 C162.65 271.76, 158.73 272.22, 154.81 272.53 C150.89 272.84, 146.94 273, 143 273 C139.06 273, 135.11 272.84, 131.19 272.53 C127.27 272.22, 123.35 271.76, 119.46 271.14 C115.58 270.52, 111.71 269.75, 107.9 268.82 C104.08 267.9, 100.29 266.82, 96.57 265.6 C92.84 264.38, 89.16 263.01, 85.56 261.5 C81.95 259.99, 78.4 258.34, 74.94 256.55 C71.48 254.76, 68.08 252.83, 64.79 250.77 C61.49 248.72, 58.27 246.53, 55.17 244.22 C52.06 241.91, 49.04 239.47, 46.15 236.93 C43.25 234.38, 40.46 231.71, 37.79 228.95 C35.13 226.18, 32.57 223.31, 30.15 220.34 C27.74 217.37, 25.44 214.3, 23.29 211.16 C21.13 208.01, 19.11 204.77, 17.24 201.47 C15.36 198.16, 13.63 194.77, 12.04 191.33 C10.46 187.89, 9.03 184.38, 7.75 180.82 C6.47 177.27, 5.34 173.65, 4.38 170.01 C3.41 166.37, 2.6 162.67, 1.95 158.97 C1.3 155.26, 0.81 151.52, 0.49 147.77 C0.16 144.03, 0 140.26, 0 136.5 C0 132.74, 0.16 128.97, 0.49 125.23 C0.81 121.48, 1.3 117.74, 1.95 114.03 C2.6 110.33, 3.41 106.63, 4.38 102.99 C5.34 99.35, 6.47 95.73, 7.75 92.18 C9.03 88.62, 10.46 85.11, 12.04 81.67 C13.63 78.23, 15.36 74.84, 17.24 71.53 C19.11 68.23, 21.13 64.99, 23.29 61.84 C25.44 58.7, 27.74 55.63, 30.15 52.66 C32.57 49.69, 35.13 46.82, 37.79 44.05 C40.46 41.29, 43.25 38.62, 46.15 36.07 C49.04 33.53, 52.06 31.09, 55.17 28.78 C58.27 26.47, 61.49 24.28, 64.79 22.23 C68.08 20.17, 71.48 18.24, 74.94 16.45 C78.4 14.66, 81.95 13.01, 85.56 11.5 C89.16 9.99, 92.84 8.62, 96.57 7.4 C100.29 6.18, 104.08 5.1, 107.9 4.18 C111.71 3.25, 115.58 2.48, 119.46 1.86 C123.35 1.24, 127.27 0.78, 131.19 0.47 C135.11 0.16, 139.06 0, 143 0 C146.94 0, 150.89 0.16, 154.81 0.47 C158.73 0.78, 162.65 1.24, 166.54 1.86 C170.42 2.48, 174.29 3.25, 178.1 4.18 C181.92 5.1, 185.71 6.18, 189.43 7.4 C193.16 8.62, 196.84 9.99, 200.44 11.5 C204.05 13.01, 207.6 14.66, 211.06 16.45 C214.52 18.24, 217.92 20.17, 221.21 22.23 C224.51 24.28, 227.73 26.47, 230.83 28.78 C233.94 31.09, 236.96 33.53, 239.85 36.07 C242.75 38.62, 245.54 41.29, 248.21 44.05 C250.87 46.82, 253.43 49.69, 255.85 52.66 C258.26 55.63, 260.56 58.7, 262.71 61.84 C264.87 64.99, 266.89 68.23, 268.76 71.53 C270.64 74.84, 272.37 78.23, 273.96 81.67 C275.54 85.11, 276.97 88.62, 278.25 92.18 C279.53 95.73, 280.66 99.35, 281.62 102.99 C282.59 106.63, 283.4 110.33, 284.05 114.03 C284.7 117.74, 285.19 121.48, 285.51 125.23 C285.84 128.97, 286 132.74, 286 136.5" stroke="#000000" stroke-width="1" fill="none"></path></g><g transform="translate(230.03333282470703 116.79999999999998) rotate(0 56.00833511352539 16.80000000000001)"><text x="0" y="0" font-family="Virgil, Segoe UI Emoji" font-size="28px" fill="#000000" text-anchor="start" style="white-space: pre;" direction="ltr" dominant-baseline="text-before-edge">Valuable</text></g><g transform="translate(97.60833358764648 324.79999999999995) rotate(0 54.150001525878906 16.799999999999983)"><text x="0" y="0" font-family="Virgil, Segoe UI Emoji" font-size="28px" fill="#000000" text-anchor="start" style="white-space: pre;" direction="ltr" dominant-baseline="text-before-edge">Feasible</text></g><g transform="translate(379.03333282470703 320.80000000000007) rotate(0 45.391666412353516 16.80000000000001)"><text x="0" y="0" font-family="Virgil, Segoe UI Emoji" font-size="28px" fill="#000000" text-anchor="start" style="white-space: pre;" direction="ltr" dominant-baseline="text-before-edge">Usable</text></g><g transform="translate(261.03333282470703 10) rotate(0 25.691667556762695 21.599999999999994)"><text x="0" y="0" font-family="Virgil, Segoe UI Emoji" font-size="36px" fill="#000000" text-anchor="start" style="white-space: pre;" direction="ltr" dominant-baseline="text-before-edge">PM</text></g><g transform="translate(500.34166526794434 412) rotate(0 55.03333282470703 21.600000000000023)"><text x="0" y="0" font-family="Virgil, Segoe UI Emoji" font-size="36px" fill="#000000" text-anchor="start" style="white-space: pre;" direction="ltr" dominant-baseline="text-before-edge">Design</text></g><g transform="translate(10 410) rotate(0 29.558332443237305 21.600000000000023)"><text x="0" y="0" font-family="Virgil, Segoe UI Emoji" font-size="36px" fill="#000000" text-anchor="start" style="white-space: pre;" direction="ltr" dominant-baseline="text-before-edge">Eng</text></g></svg>